<?xml version="1.0" encoding="utf-8"?>
<!-- Generator: Adobe Illustrator 15.1.0, SVG Export Plug-In . SVG Version: 6.00 Build 0)  -->
<!DOCTYPE svg PUBLIC "-//W3C//DTD SVG 1.1//EN" "http://www.w3.org/Graphics/SVG/1.1/DTD/svg11.dtd">
<svg version="1.1" id="Ebene_1" xmlns="http://www.w3.org/2000/svg" xmlns:xlink="http://www.w3.org/1999/xlink" x="0px" y="0px"
	 width="800px" height="600px" viewBox="0 0 800 600" enable-background="new 0 0 800 600" xml:space="preserve">
<rect x="432.443" y="208.1" transform="matrix(-0.7314 -0.682 0.682 -0.7314 630.9041 710.6863)" fill="#5BACEC" width="45.966" height="45.966"/>
<rect x="462.966" y="262.267" transform="matrix(-0.7071 -0.7071 0.7071 -0.7071 623.0893 819.0374)" fill="#5BACEC" width="36.413" height="36.412"/>
<rect x="494.712" y="236.154" transform="matrix(-0.7071 -0.7071 0.7071 -0.7071 695.7466 796.9084)" fill="#5BACEC" width="36.413" height="36.413"/>
<rect x="437.708" y="295.738" transform="matrix(-0.7071 -0.7071 0.7071 -0.7071 552.584 849.3058)" fill="#5BACEC" width="28.951" height="28.95"/>
<rect x="498.443" y="297.636" transform="matrix(-0.7071 -0.7071 0.7071 -0.7071 654.9244 895.4921)" fill="#5BACEC" width="28.951" height="28.95"/>
<rect x="414.553" y="263.138" transform="matrix(-0.7071 -0.7071 0.7071 -0.7071 536.1077 777.2821)" fill="#5BACEC" width="28.951" height="28.95"/>
<rect x="529.398" y="268.431" transform="matrix(-0.7071 -0.7071 0.7071 -0.7071 724.0823 857.0372)" fill="#5BACEC" width="20.265" height="20.264"/>
<rect x="407.258" y="312.682" transform="matrix(-0.6852 -0.7284 0.7284 -0.6852 468.2524 848.0156)" fill="#5BACEC" width="20.264" height="20.266"/>
<rect x="479.698" y="198.19" transform="matrix(-0.7071 -0.7071 0.7071 -0.7071 687.0061 697.3902)" fill="#5BACEC" width="16.462" height="16.46"/>
<rect x="409.159" y="243.716" transform="matrix(-0.7071 -0.7071 0.7071 -0.7071 534.3956 725.2333)" fill="#5BACEC" width="16.462" height="16.46"/>
<rect x="470.909" y="322.452" transform="matrix(-0.707 -0.7072 0.7072 -0.707 584.0657 903.3219)" fill="#5BACEC" width="16.461" height="16.462"/>
<rect x="545.63" y="234.492" transform="matrix(-0.7071 -0.7071 0.7071 -0.7071 773.8923 805.981)" fill="#5BACEC" width="16.462" height="16.46"/>
<g>
	<defs>
		<rect id="SVGID_1_" x="234" y="150.853" width="331.499" height="297.147"/>
	</defs>
	<clipPath id="SVGID_2_">
		<use xlink:href="#SVGID_1_"  overflow="visible"/>
	</clipPath>
	<path clip-path="url(#SVGID_2_)" fill="#5BACEC" d="M451.228,189.274c-21.797-21.796-51.908-35.277-85.168-35.277
		c-66.521,0-120.447,53.927-120.447,120.447c0,66.521,53.926,120.447,120.447,120.447c40.337,0,75.065-17.949,96.926-48.39
		l-21.913-21.253l-21.914,20.891l-13.621-14.167c-11.229,7.72-24.822,12.247-39.478,12.247c-38.535,0-69.775-31.239-69.775-69.775
		c0-38.535,31.24-69.773,69.775-69.773c20.314,0,38.593,8.686,51.344,22.539L451.228,189.274z"/>
	<path clip-path="url(#SVGID_2_)" fill="#272525" d="M522.436,436.158l3.876-10.647l3.953,10.647H522.436z M529.442,418.817h-6.126
		l-11.176,28.693h6.146l2.367-6.518h11.471l2.504,6.518h6.303L529.442,418.817z M503.795,447.511v-23.839h8.494v-4.854h-22.803
		v4.854h8.516v23.839H503.795z M466.402,423.672h4.522c2.348,0,3.758,0.031,4.227,0.097c0.94,0.157,1.667,0.532,2.183,1.126
		s0.773,1.373,0.773,2.339c0,0.861-0.195,1.579-0.587,2.153c-0.392,0.573-0.933,0.979-1.625,1.213s-2.427,0.353-5.206,0.353h-4.287
		V423.672z M466.402,447.511v-11.979h1.176c1.33,0,2.303,0.107,2.916,0.323c0.612,0.215,1.193,0.613,1.741,1.194
		c0.548,0.58,1.566,1.985,3.054,4.218l4.188,6.243h6.929l-3.504-5.599c-1.383-2.23-2.482-3.784-3.298-4.657
		c-0.815-0.874-1.849-1.677-3.103-2.407c2.519-0.365,4.41-1.25,5.677-2.652c1.266-1.403,1.899-3.181,1.899-5.334
		c0-1.696-0.418-3.203-1.254-4.521c-0.834-1.318-1.947-2.235-3.336-2.75c-1.391-0.517-3.619-0.773-6.685-0.773h-12.194v28.693
		H466.402z M437.017,436.158l3.875-10.647l3.954,10.647H437.017z M444.023,418.817h-6.126l-11.176,28.693h6.146l2.368-6.518h11.47
		l2.506,6.518h6.302L444.023,418.817z M404.498,447.511v-12.546h11.353v12.546h5.793v-28.693h-5.793v11.293h-11.353v-11.293h-5.793
		v28.693H404.498z M383.705,441.58c-1.11,0.979-2.434,1.469-3.974,1.469c-2.088,0-3.784-0.771-5.089-2.311
		c-1.305-1.539-1.957-4.123-1.957-7.751c0-3.418,0.662-5.891,1.987-7.418c1.324-1.527,3.05-2.29,5.177-2.29
		c1.539,0,2.848,0.431,3.924,1.292c1.077,0.861,1.784,2.036,2.124,3.523l5.735-1.37c-0.653-2.296-1.632-4.059-2.936-5.285
		c-2.193-2.074-5.044-3.112-8.554-3.112c-4.019,0-7.261,1.321-9.727,3.964c-2.467,2.643-3.7,6.352-3.7,11.127
		c0,4.516,1.227,8.074,3.68,10.678c2.453,2.603,5.585,3.904,9.395,3.904c3.079,0,5.62-0.76,7.624-2.28
		c2.002-1.521,3.435-3.847,4.296-6.978l-5.618-1.781C385.609,439.062,384.812,440.602,383.705,441.58 M336.781,447.511h24.192
		v-6.498h-15.306v-5.656h13.799v-5.854h-13.799v-4.56h14.875v-6.126h-23.761V447.511z M314.812,425.315
		c2.297,0,3.941,0.561,4.933,1.683c0.991,1.122,1.487,3.203,1.487,6.244c0,2.296-0.222,3.957-0.665,4.981
		c-0.444,1.023-1.057,1.742-1.84,2.152c-0.783,0.411-2.101,0.617-3.954,0.617h-2.172v-15.678H314.812z M303.733,447.511h13.173
		c1.578,0,3.34-0.262,5.284-0.783c1.422-0.378,2.753-1.138,3.993-2.28c1.24-1.142,2.209-2.557,2.907-4.247
		c0.698-1.689,1.047-4.067,1.047-7.134c0-1.958-0.235-3.81-0.705-5.559s-1.226-3.282-2.27-4.601
		c-1.044-1.317-2.365-2.329-3.964-3.033c-1.598-0.705-3.696-1.057-6.292-1.057h-13.173V447.511z M277.597,426.939
		c1.083-1.265,2.518-1.898,4.306-1.898c1.866,0,3.343,0.623,4.433,1.869c1.089,1.246,1.634,3.221,1.634,5.921
		c0,3.21-0.522,5.435-1.566,6.675c-1.044,1.239-2.518,1.858-4.423,1.858c-1.853,0-3.318-0.632-4.394-1.897
		c-1.077-1.267-1.615-3.348-1.615-6.244C275.972,430.3,276.514,428.205,277.597,426.939 M269.083,441.561
		c1.317,2.23,3.036,3.863,5.157,4.893c2.12,1.031,4.798,1.547,8.035,1.547c3.183,0,5.842-0.597,7.976-1.791
		c2.133-1.193,3.764-2.863,4.893-5.011c1.128-2.146,1.693-4.896,1.693-8.25c0-4.619-1.292-8.211-3.876-10.774
		c-2.583-2.564-6.263-3.847-11.039-3.847c-4.658,0-8.292,1.306-10.902,3.915c-2.61,2.61-3.914,6.257-3.914,10.941
		C267.105,436.537,267.764,439.329,269.083,441.561 M252.251,439.916c-0.868,0.953-2.15,1.43-3.846,1.43
		c-1.749,0-3.106-0.59-4.071-1.77c-0.966-1.18-1.449-3.359-1.449-6.54c0-2.566,0.405-4.45,1.214-5.648
		c1.07-1.616,2.61-2.426,4.619-2.426c0.887,0,1.69,0.184,2.408,0.549c0.717,0.365,1.324,0.888,1.82,1.565
		c0.3,0.405,0.587,1.044,0.861,1.918l7.829-1.742c-1.005-3.026-2.541-5.271-4.609-6.732c-2.069-1.461-4.91-2.192-8.524-2.192
		c-4.619,0-8.191,1.275-10.716,3.824c-2.525,2.55-3.788,6.198-3.788,10.944c0,3.56,0.718,6.48,2.153,8.763
		c1.436,2.282,3.142,3.876,5.119,4.782s4.524,1.359,7.643,1.359c2.57,0,4.688-0.372,6.351-1.115
		c1.664-0.744,3.057-1.847,4.179-3.309c1.122-1.461,1.944-3.281,2.466-5.461l-7.77-2.348
		C253.749,437.58,253.12,438.965,252.251,439.916"/>
</g>
</svg>
