<?xml version="1.0" encoding="utf-8"?>
<!-- Generator: Adobe Illustrator 26.0.2, SVG Export Plug-In . SVG Version: 6.00 Build 0)  -->
<svg id="Ebene_1" style="enable-background:new 0 0 595.28 841.89;" version="1.1" viewBox="0 0 595.28 841.89" x="0px"
     xml:space="preserve"
     xmlns="http://www.w3.org/2000/svg" y="0px">
<style type="text/css">
	.st0 {
    fill: #FFFFFF;
  }
</style>
  <g>
	<path class="st0" d="M337.4,296.89c0.1-20.06,16.39-36.3,36.47-36.3s36.37,16.23,36.47,36.3h0.01v64.36h-31.51v-63.7
		c0,0,0-0.31,0-0.47v0c0-2.75-2.23-4.97-4.97-4.97c-2.75,0-4.97,2.23-4.97,4.97v0c0,0.16,0,0.47,0,0.47v63.7h-31.51L337.4,296.89
		L337.4,296.89z"/>
</g>
  <g>
	<path class="st0" d="M337.3,361.25c-0.01-12.02-0.02-42.39-0.03-53.99c-0.07-1.65,0.14-9.75-0.12-11.21
		c-0.76-3.91-6.13-5.16-8.52-1.96c-0.98,1.18-1.1,2.68-1.03,4.17c0,0,0.01,9,0.01,9c0.01,11.48,0.02,42.14,0.03,53.99
		c0,0,0,0.18,0,0.18l-0.18,0c0,0-31.51,0.02-31.51,0.02s-0.2,0-0.2,0s0-0.2,0-0.2c0.16-0.17-0.28-64.7,0.2-64.53
		c0.03-0.02-0.15,0.16-0.15,0.16c0.04-4.78,1-9.55,2.85-13.96c9.96-23.89,41.29-30.09,59.6-11.79c6.75,6.59,11.06,16.87,10.68,25.86
		c0,0-0.01,0-0.01,0s-0.1,0-0.1,0s0-0.1,0-0.1c-0.2-9.46-4.26-18.72-11.09-25.23c-22.75-21.48-59.83-6.14-60.17,25.23
		c0,0,0,1.57,0,1.57s-1.58,0.01-1.58,0.01c-0.04,0.01,1.58-1.58,1.57-1.58c0,0,0.22,64.36,0.22,64.36l-1.8-1.8l31.51,0.11
		c0,0-1.69,1.69-1.69,1.69c0.07-17.23,0.11-46.11,0.36-62.99c-0.73-9.09,11.95-10.13,12.43-1.12c-0.09,8.46-0.18,19.65-0.37,28.12
		C337.98,325.2,337.84,361.69,337.3,361.25L337.3,361.25z"/>
</g>
</svg>
