<?xml version="1.0" encoding="utf-8"?>
<!-- Generator: Adobe Illustrator 26.0.2, SVG Export Plug-In . SVG Version: 6.00 Build 0)  -->
<svg version="1.1" id="Ebene_1" xmlns="http://www.w3.org/2000/svg" xmlns:xlink="http://www.w3.org/1999/xlink" x="0px" y="0px"
	 viewBox="0 0 595.28 841.89" style="enable-background:new 0 0 595.28 841.89;" xml:space="preserve">
<style type="text/css">
	.st0{fill:#FFFFFF;}
</style>
<g>
	<path class="st0" d="M190.46,409.61c0-5.67,3.34-8.3,7.69-8.3c2.8,0,4.99,1.18,6.27,3.37c1.28-2.19,3.47-3.37,6.27-3.37
		c4.35,0,7.69,2.63,7.69,8.3v14.2h-4.32v-14.2c0-3.04-1.62-4.28-3.74-4.28c-2.12,0-3.74,1.28-3.74,4.28v14.2h-4.32v-14.2
		c0-3-1.62-4.28-3.74-4.28c-2.12,0-3.74,1.25-3.74,4.28v14.2h-4.32V409.61z"/>
	<path class="st0" d="M227.44,410.9c0-5.9,3.37-9.58,9.61-9.58c6.24,0,9.68,3.68,9.68,9.58v12.91h-4.32v-6.61h-10.75v6.61h-4.21
		V410.9z M242.41,413.29v-2.39c0-3.54-1.75-5.56-5.39-5.56c-3.61,0-5.36,2.02-5.36,5.56v2.39H242.41z"/>
	<path class="st0" d="M256.25,401.44h4.38v22.37h-4.38V401.44z"/>
	<path class="st0" d="M270.38,401.44h10.71c4.24,0,6.47,2.43,6.47,5.82c0,2.26-1.06,4-2.91,4.93v0.07c2.46,0.79,3.93,2.84,3.93,5.51
		c0,3.49-2.26,6.06-6.6,6.06h-11.6V401.44z M280.54,410.5c1.81,0,2.67-1.09,2.67-2.5c0-1.44-0.68-2.5-2.7-2.5h-5.75v5H280.54z
		 M281.23,419.77c2.05,0,2.87-1.2,2.87-2.67c0-1.51-1.03-2.7-2.84-2.7h-6.5v5.37H281.23z"/>
	<path class="st0" d="M295.77,412.6c0-6.57,4.83-11.4,11.67-11.4s11.67,4.83,11.67,11.4s-4.83,11.4-11.67,11.4
		S295.77,419.17,295.77,412.6z M314.75,412.6c0-4.29-2.95-7.41-7.31-7.41s-7.31,3.12-7.31,7.41s2.95,7.45,7.31,7.45
		S314.75,416.89,314.75,412.6z"/>
	<path class="st0" d="M328.17,401.44h9.37c5.68,0,8.18,3.11,8.18,7.39c0,3.52-1.68,5.95-4.69,6.95l5.51,8.04h-5.2l-4.75-7.56h-4.04
		v7.56h-4.38V401.44z M337.61,412.18c2.77,0,3.69-1.44,3.69-3.35c0-1.92-0.92-3.32-3.69-3.32h-5.06v6.67H337.61z"/>
	<path class="st0" d="M354.21,410.52c0-5.67,3.39-9.21,9.51-9.21c6.12,0,9.51,3.54,9.51,9.21v13.29h-4.38v-13.29
		c0-3.27-1.71-5.19-5.13-5.19s-5.13,1.92-5.13,5.19v13.29h-4.38V410.52z"/>
	<path class="st0" d="M382.4,415.65v-14.21h4.32v14.21c0,3.04,1.62,4.29,3.75,4.29c2.13,0,3.75-1.28,3.75-4.29v-14.21h4.32v14.21
		c0,3.01,1.62,4.29,3.75,4.29c2.13,0,3.75-1.25,3.75-4.29v-14.21h4.32v14.21c0,5.67-3.34,8.31-7.7,8.31c-2.8,0-5-1.18-6.28-3.38
		c-1.28,2.19-3.48,3.38-6.28,3.38C385.75,423.96,382.4,421.33,382.4,415.65z"/>
	<path class="st0" d="M418.33,412.6c0-6.59,4.84-11.43,11.7-11.43c6.86,0,11.7,4.84,11.7,11.43s-4.84,11.43-11.7,11.43
		C423.17,424.03,418.33,419.19,418.33,412.6z M437.36,412.6c0-4.3-2.96-7.43-7.33-7.43c-4.37,0-7.33,3.13-7.33,7.43
		s2.96,7.46,7.33,7.46C434.4,420.06,437.36,416.9,437.36,412.6z"/>
	<path class="st0" d="M450.73,401.44h4.38v18.34h11.7v4.04h-16.08V401.44z"/>
	<path class="st0" d="M475.12,401.44h16.22v4.07H479.5v4.93h9.85v3.97h-9.85v9.41h-4.38V401.44z"/>
	<path class="st0" d="M499.76,401.44h16.22v4.07h-11.84v4.93h9.85v3.97h-9.85v9.41h-4.38V401.44z"/>
	<g>
		<path class="st0" d="M337.4,296.89c0.1-20.06,16.39-36.3,36.47-36.3s36.37,16.23,36.47,36.3h0.01v64.36h-31.51v-63.7
			c0,0,0-0.31,0-0.47v0c0-2.75-2.23-4.97-4.97-4.97c-2.75,0-4.97,2.23-4.97,4.97v0c0,0.16,0,0.47,0,0.47v63.7h-31.51L337.4,296.89
			L337.4,296.89z"/>
	</g>
	<g>
		<path class="st0" d="M337.3,361.25c-0.01-12.02-0.02-42.39-0.03-53.99c-0.07-1.65,0.14-9.75-0.12-11.21
			c-0.76-3.91-6.13-5.16-8.52-1.96c-0.98,1.18-1.1,2.68-1.03,4.17c0,0,0.01,9,0.01,9c0.01,11.48,0.02,42.14,0.03,53.99
			c0,0,0,0.18,0,0.18l-0.18,0l-31.51,0.02l-0.2,0v-0.2c0.16-0.17-0.28-64.7,0.2-64.53c0.03-0.02-0.15,0.16-0.15,0.16
			c0.04-4.78,1-9.55,2.85-13.96c9.96-23.89,41.29-30.09,59.6-11.79c6.74,6.59,11.09,16.9,10.67,25.86c0,0-0.1,0-0.1,0l0-0.1
			c-0.2-9.46-4.26-18.72-11.09-25.23c-13.69-13.38-36.77-13.29-50.04,0.52c-6.85,6.92-10.47,16.63-10.14,26.28c0,0-1.58,0-1.59,0.01
			c0,0,1.58-1.58,1.58-1.58l0.22,64.36l-1.8-1.8l31.51,0.11l-1.69,1.69c0.07-17.76,0.11-46.7,0.37-64.11
			c0.54-8.99,13.29-7.96,12.4,1.12c-0.09,8.02-0.18,18.98-0.36,26.99C337.98,325.2,337.84,361.69,337.3,361.25L337.3,361.25z"/>
	</g>
</g>
</svg>
