<svg version="1.1" id="Ebene_1" xmlns="http://www.w3.org/2000/svg" x="0" y="0" viewBox="0 0 595.28 841.89" style="enable-background:new 0 0 595.28 841.89" xml:space="preserve"><style>.st0{fill:#fff}</style><path class="st0" d="M337.4 296.89c.1-20.06 16.39-36.3 36.47-36.3s36.37 16.23 36.47 36.3h.01v64.36h-31.51v-64.17a4.97 4.97 0 1 0-9.94 0v64.17h-31.51l.01-64.36z"/><path class="st0" d="M337.3 361.25c-.01-12.02-.02-42.39-.03-53.99-.07-1.65.14-9.75-.12-11.21-.76-3.91-6.13-5.16-8.52-1.96-.98 1.18-1.1 2.68-1.03 4.17l.01 9c.01 11.48.02 42.14.03 53.99v.18h-.18l-31.51.02h-.2v-.2c.16-.17-.28-64.7.2-64.53.03-.02-.15.16-.15.16.04-4.78 1-9.55 2.85-13.96 9.96-23.89 41.29-30.09 59.6-11.79 6.75 6.59 11.06 16.87 10.68 25.86h-.11v-.1c-.2-9.46-4.26-18.72-11.09-25.23-22.75-21.48-59.83-6.14-60.17 25.23v1.57l-1.58.01c-.04.01 1.58-1.58 1.57-1.58l.22 64.36-1.8-1.8 31.51.11-1.69 1.69c.07-17.23.11-46.11.36-62.99-.73-9.09 11.95-10.13 12.43-1.12-.09 8.46-.18 19.65-.37 28.12-.23-.06-.37 36.43-.91 35.99z"/></svg>